<svg xmlns="http://www.w3.org/2000/svg" xmlns:xlink="http://www.w3.org/1999/xlink" viewBox="-497 476 33 26">
  <defs>
    <style>
      .cls-1 {
        clip-path: url(#clip-icon-twitter);
      }

      .cls-2 {
        fill: #fff;
      }
    </style>
    <clipPath id="clip-icon-twitter">
      <rect x="-497" y="476" width="33" height="26"/>
    </clipPath>
  </defs>
  <g id="icon-twitter" class="cls-1">
    <path id="Path_1176" data-name="Path 1176" class="cls-2" d="M26.3,2.55a9.734,9.734,0,0,1-3.125.822A5.315,5.315,0,0,0,25.56.411a10.368,10.368,0,0,1-3.454,1.316A5.16,5.16,0,0,0,18.24,0a5.423,5.423,0,0,0-5.428,5.428,6.349,6.349,0,0,0,.164,1.234A15.5,15.5,0,0,1,1.792.987,5.176,5.176,0,0,0,1.051,3.7,5.564,5.564,0,0,0,3.436,8.224,5.024,5.024,0,0,1,.969,7.566v.082a5.381,5.381,0,0,0,4.359,5.264,8.1,8.1,0,0,1-1.4.164,4,4,0,0,1-.987-.082A5.493,5.493,0,0,0,7.96,16.778a10.791,10.791,0,0,1-6.744,2.3A7.526,7.526,0,0,1-.1,19a15.164,15.164,0,0,0,8.307,2.467A15.261,15.261,0,0,0,23.586,6.086v-.74A10.968,10.968,0,0,0,26.3,2.55Z" transform="translate(-494.05 478.317)"/>
  </g>
</svg>
