<svg xmlns="http://www.w3.org/2000/svg" xmlns:xlink="http://www.w3.org/1999/xlink" viewBox="-423 476 32 26">
  <defs>
    <style>
      .cls-1 {
        clip-path: url(#clip-icon-youtube);
      }

      .cls-2 {
        fill: #fff;
      }
    </style>
    <clipPath id="clip-icon-youtube">
      <rect x="-423" y="476" width="32" height="26"/>
    </clipPath>
  </defs>
  <g id="icon-youtube" class="cls-1">
    <path id="Path_1175" data-name="Path 1175" class="cls-2" d="M31.7,4.9a6.771,6.771,0,0,0-1.3-3.2A4.68,4.68,0,0,0,27.2.3C22.7,0,16,0,16,0h0S9.3,0,4.8.3A4.68,4.68,0,0,0,1.6,1.7,6.771,6.771,0,0,0,.3,4.9,48.748,48.748,0,0,0,0,10v2.4a51.99,51.99,0,0,0,.3,5.2,6.771,6.771,0,0,0,1.3,3.2c1.2,1.3,2.8,1.2,3.5,1.4,2.6.2,10.9.3,10.9.3s6.7,0,11.2-.3a4.68,4.68,0,0,0,3.2-1.4,6.771,6.771,0,0,0,1.3-3.2,51.99,51.99,0,0,0,.3-5.2V10a48.748,48.748,0,0,0-.3-5.1Zm-19,10.5v-9l8.6,4.5Z" transform="translate(-423 478)"/>
  </g>
</svg>
