<?xml version="1.0" encoding="UTF-8"?>
<svg xmlns="http://www.w3.org/2000/svg" xmlns:xlink="http://www.w3.org/1999/xlink" viewBox="0 0 32 32" version="1.1" fill="#ffffff"><g id="surface1" fill="#ffffff"><path style=" " d="M 3 4 L 3 11 L 4 11 C 5.117188 11 6 11.882813 6 13 C 6 14.117188 5.117188 15 4 15 L 3 15 L 3 22 L 29 22 L 29 15 L 28 15 C 26.882813 15 26 14.117188 26 13 C 26 11.882813 26.882813 11 28 11 L 29 11 L 29 4 Z M 5 6 L 27 6 L 27 9.1875 C 25.289063 9.640625 24 11.152344 24 13 C 24 14.847656 25.289063 16.359375 27 16.8125 L 27 20 L 5 20 L 5 16.8125 C 6.710938 16.359375 8 14.847656 8 13 C 8 11.152344 6.710938 9.640625 5 9.1875 Z M 5.5625 23 L 26.6875 27.1875 L 27.5 23 L 25.46875 23 L 25.09375 24.8125 L 15.875 23 Z " fill="#ffffff"/></g></svg>
