<?xml version="1.0" encoding="utf-8"?>
<!-- Generator: Adobe Illustrator 22.1.0, SVG Export Plug-In . SVG Version: 6.00 Build 0)  -->
<svg version="1.1" id="Capa_1" xmlns="http://www.w3.org/2000/svg" xmlns:xlink="http://www.w3.org/1999/xlink" x="0px" y="0px"
	 viewBox="0 0 512 512" style="enable-background:new 0 0 512 512;" xml:space="preserve">
<style type="text/css">
	.st0{fill:#FFFFFF;}
</style>
<g>
	<g>
		<path class="st0" d="M256,174.6c-44.9,0-81.4,36.5-81.4,81.4s36.5,81.4,81.4,81.4s81.4-36.5,81.4-81.4S300.9,174.6,256,174.6z"/>
	</g>
</g>
<g>
	<g>
		<path class="st0" d="M428.5,0H83.5C37.4,0,0,37.4,0,83.5v344.9C0,474.6,37.4,512,83.5,512h344.9c46.1,0,83.5-37.4,83.5-83.5V83.5
			C512,37.4,474.6,0,428.5,0z M307,356C207.5,401.2,110.8,304.5,156,205c9.9-21.7,27.3-39.1,49-49C304.5,110.8,401.2,207.5,356,307
			C346.1,328.6,328.6,346.1,307,356z M411.2,122c-2.8,2.8-6.6,4.4-10.6,4.4c-4,0-7.8-1.6-10.6-4.4c-2.8-2.8-4.4-6.7-4.4-10.6
			c0-3.9,1.6-7.8,4.4-10.6c2.8-2.8,6.7-4.4,10.6-4.4c3.9,0,7.8,1.6,10.6,4.4c2.8,2.8,4.4,6.7,4.4,10.6S414,119.2,411.2,122z"/>
	</g>
</g>
</svg>
