<svg xmlns="http://www.w3.org/2000/svg" xmlns:xlink="http://www.w3.org/1999/xlink" viewBox="-457 476 28 26">
  <defs>
    <style>
      .cls-1 {
        clip-path: url(#clip-icon-linkedin);
      }

      .cls-2 {
        fill: #fff;
      }
    </style>
    <clipPath id="clip-icon-linkedin">
      <rect x="-457" y="476" width="28" height="26"/>
    </clipPath>
  </defs>
  <g id="icon-linkedin" class="cls-1">
    <g id="Group_697" data-name="Group 697" transform="translate(-457 476)">
      <path id="Path_1172" data-name="Path 1172" class="cls-2" d="M10,8h5.5v2.8h.1A6.42,6.42,0,0,1,21.1,8c5.8,0,6.9,3.6,6.9,8.4V26H22.2V17.5c0-2,0-4.7-3-4.7s-3.5,2.2-3.5,4.5V26H10Z"/>
      <path id="Path_1173" data-name="Path 1173" class="cls-2" d="M0,8H6V26H0Z"/>
      <path id="Path_1174" data-name="Path 1174" class="cls-2" d="M6,3A2.946,2.946,0,0,1,3,6,2.946,2.946,0,0,1,0,3,2.946,2.946,0,0,1,3,0,2.946,2.946,0,0,1,6,3Z"/>
    </g>
  </g>
</svg>
