<?xml version="1.0" encoding="utf-8"?>
<!-- Generator: Adobe Illustrator 22.1.0, SVG Export Plug-In . SVG Version: 6.00 Build 0)  -->
<svg version="1.1" id="Layer_1" xmlns="http://www.w3.org/2000/svg" xmlns:xlink="http://www.w3.org/1999/xlink" x="0px" y="0px"
	 viewBox="0 0 285.1 251" style="enable-background:new 0 0 285.1 251;" xml:space="preserve">
<style type="text/css">
	.st0{fill:#F5F5F5;}
	.st1{fill:#FFFFFF;}
</style>
<title>Asset 2</title>
<g id="Layer_2_2_">
	<g id="Layer_1-2_1_">
		<path class="st0" d="M286.4,250.3H1.3v-251c0.8,0,1.6,0,2.5,0h1c37.1,0.3,71.5,19.3,91.5,50.5l0.1,0.1l79.5,122.7
			c12.7,22.8,30.9,42,53,55.9C246.4,239.6,266,247,286.4,250.3z"/>
	</g>
</g>
<g id="Layer_2_1_">
	<g id="Layer_1-2">
		<path class="st1" d="M285.1,251H0V0c0.8,0,1.6,0,2.5,0h1c37.1,0.3,71.5,19.3,91.4,50.5l0.1,0.1l79.5,122.7
			c12.7,22.8,30.9,42,53,55.9C245,240.3,264.6,247.7,285.1,251z"/>
	</g>
</g>
</svg>
