<svg xmlns="http://www.w3.org/2000/svg" xmlns:xlink="http://www.w3.org/1999/xlink" viewBox="-842 1548 310 585">
  <defs>
    <style>
      .cls-1 {
        clip-path: url(#clip-misc-shape-3);
      }

      .cls-2 {
        fill: #ffa620;
      }

      .cls-3 {
        fill: #e8762a;
      }

      .cls-3, .cls-4, .cls-5 {
        opacity: 0.5;
      }

      .cls-4 {
        fill: #ff7b0a;
      }

      .cls-5 {
        fill: #ddd;
      }
    </style>
    <clipPath id="clip-misc-shape-3">
      <rect x="-842" y="1548" width="310" height="585"/>
    </clipPath>
  </defs>
  <g id="misc-shape-3" class="cls-1">
    <g id="Group_694" data-name="Group 694" transform="translate(-841.961 1816.2)">
      <path id="Path_1042" data-name="Path 1042" class="cls-2" d="M304.658,147.479a15.181,15.181,0,0,1,0,21.126L164.788,311.886a14.151,14.151,0,0,1-20.641,0L4.278,169.147a15.518,15.518,0,0,1,0-21.4L144.147,4.469a14.151,14.151,0,0,1,20.641,0Z" transform="translate(308.935 316.355) rotate(180)"/>
      <path id="Path_1039" data-name="Path 1039" class="cls-3" d="M69.705,146.243a15.238,15.238,0,0,1,1.356,19.528c5.153-6.509,8.95-17.087,8.95-24.682V8.188c0-7.594-3.526-10.035-8.408-6.781-.271.271-.542.271-.542.542h0c-.271.271-.814.542-1.085,1.085L0,74.639Z" transform="translate(234.687 315.41) rotate(180)"/>
      <path id="Path_1041" data-name="Path 1041" class="cls-4" d="M143.954,71.6,74.248,0,4.272,71.875a15.57,15.57,0,0,0,0,21.427l69.705,71.6c23.054-23.868,46.38-47.465,69.434-71.333a15.511,15.511,0,0,0,.542-21.969" transform="translate(308.935 240.771) rotate(180)"/>
    </g>
    <path id="Path_1168" data-name="Path 1168" class="cls-5" d="M132.1,4.385c26.807,27.477,89.468,91.813,93.824,96.5,3.016,3.016,8.712,4.691,12.733,3.686s6.032-1.34,10.053-2.346,9.717.67,12.733,3.686c16.754,17.089,33.173,34.179,49.928,51.268,3.016,3.016,5.361,9.047,5.361,13.4V378c0,10.723-6.031,13.4-13.4,5.7-56.964-58.64-114.264-117.28-171.228-175.92-7.372-7.707-13.4-22.451-13.4-33.173V10.416c0-11.058,6.032-13.738,13.4-6.032" transform="translate(-849.76 1548.012)"/>
  </g>
</svg>
