<svg xmlns="http://www.w3.org/2000/svg" xmlns:xlink="http://www.w3.org/1999/xlink" viewBox="-1604 2259 274 508">
  <defs>
    <style>
      .cls-1 {
        clip-path: url(#clip-search_background-01);
      }

      .cls-2 {
        fill: #26abdf;
      }

      .cls-3 {
        fill: #20407f;
      }

      .cls-4 {
        fill: #007fbf;
      }

      .cls-5 {
        fill: #ddd;
        opacity: 0.5;
      }
    </style>
    <clipPath id="clip-search_background-01">
      <rect x="-1604" y="2259" width="274" height="508"/>
    </clipPath>
  </defs>
  <g id="search_background-01" class="cls-1">
    <g id="Group_698" data-name="Group 698" transform="translate(-1601.961 2489.176)">
      <path id="Path_1042" data-name="Path 1042" class="cls-2" d="M266.684,129.1a13.288,13.288,0,0,1,0,18.493L144.248,273.012a12.387,12.387,0,0,1-18.068,0L3.744,148.064a13.584,13.584,0,0,1,0-18.73L126.18,3.912a12.387,12.387,0,0,1,18.068,0Z" transform="translate(270.429 276.924) rotate(180)"/>
      <path id="Path_1039" data-name="Path 1039" class="cls-3" d="M61.017,128.015A13.339,13.339,0,0,1,62.2,145.109c4.511-5.7,7.835-14.957,7.835-21.605V7.168c0-6.648-3.086-8.785-7.36-5.936-.237.237-.475.237-.475.475h0c-.237.237-.712.475-.95.95L0,65.336Z" transform="translate(205.435 276.096) rotate(180)"/>
      <path id="Path_1041" data-name="Path 1041" class="cls-4" d="M126.011,62.679,64.994,0,3.739,62.916a13.63,13.63,0,0,0,0,18.756l61.017,62.679c20.181-20.893,40.6-41.549,60.78-62.442a13.578,13.578,0,0,0,.475-19.231" transform="translate(270.429 210.761) rotate(180)"/>
    </g>
    <path id="Path_1178" data-name="Path 1178" class="cls-5" d="M130.433,3.837c23.466,24.052,78.316,80.37,82.129,84.476a13.058,13.058,0,0,0,11.146,3.227c3.52-.88,5.28-1.173,8.8-2.053a13.058,13.058,0,0,1,11.146,3.227c14.666,14.959,29.039,29.919,43.7,44.878a18.979,18.979,0,0,1,4.693,11.733V330.888c0,9.386-5.28,11.733-11.733,4.986C230.454,284.544,180.3,233.213,130.433,181.882c-6.453-6.746-11.733-19.652-11.733-29.039V9.117c0-9.68,5.28-12.026,11.733-5.28" transform="translate(-1623.584 2258.794)"/>
  </g>
</svg>
