<svg xmlns="http://www.w3.org/2000/svg" xmlns:xlink="http://www.w3.org/1999/xlink" viewBox="-1251 2259 197 477">
  <defs>
    <style>
      .cls-1 {
        clip-path: url(#clip-search_background-02);
      }

      .cls-2 {
        fill: #8cc540;
      }

      .cls-3 {
        fill: #e6e6e6;
      }
    </style>
    <clipPath id="clip-search_background-02">
      <rect x="-1251" y="2259" width="197" height="477"/>
    </clipPath>
  </defs>
  <g id="search_background-02" class="cls-1">
    <g id="Group_699" data-name="Group 699" transform="translate(-2566.068 2015.11)">
      <path id="Path_1041" data-name="Path 1041" class="cls-2" d="M166.859,83,86.063,0,4.952,83.313a18.048,18.048,0,0,0,0,24.837l80.8,83c26.723-27.666,53.76-55.018,80.482-82.684A17.98,17.98,0,0,0,166.859,83" transform="translate(1339.068 527.743)"/>
      <path id="Path_1144" data-name="Path 1144" class="cls-3" d="M16.948,341.983c.287-33.035,1.436-109.733,1.436-115.191a12.8,12.8,0,0,0-5.458-10.054c-2.873-2.011-4.6-2.873-7.469-4.6C2.3,210.131,0,205.535,0,201.8l.862-61.186c0-3.734,2.3-8.618,4.883-11.2L131.277,3.879c6.607-6.607,11.778-4.309,11.49,4.6-.862,70.091-1.724,140.47-2.873,210.561,0,9.192-5.458,21.832-12.065,28.439-33.035,32.748-66.07,66.07-99.392,99.392-6.607,6.32-11.778,4.309-11.49-4.883" transform="translate(1316.106 244.914)"/>
    </g>
  </g>
</svg>
