<svg version="1" xmlns="http://www.w3.org/2000/svg" width="194.667" height="194.667" viewBox="0 0 146.000000 146.000000"><path d="M114.2 31.5c-3.5 3.5-6.9 6.2-7.6 5.9-.6-.2-2.9 1.3-5 3.5l-3.9 4v12.8c0 8.5.4 12.8 1.2 13.1.6.2 1.1 1 1.1 1.8s2.6 3.9 5.8 6.9c3.1 3 5.2 5.5 4.7 5.5-.6 0-3.4-2.2-6.2-5-2.8-2.8-5.7-5-6.3-5-1.5 0-23 21.3-23 22.7 0 1 21.4 22.6 22.9 23.1.4.1 5.8-4.8 11.9-11 6.1-6.2 11.8-12 12.7-12.8 9.4-8.7 23.5-23 23.5-24 0-1.5-21.4-23-22.8-23-.6 0-5.8 4.8-11.7 10.6-5.8 5.9-10.8 10.4-11.1 10.1-.3-.2 4.3-5.3 10.3-11.2l10.8-10.8.1-10.6c.1-5.8-.1-11.1-.4-11.7-.5-.8-3.1 1.2-7 5.1z"/><path d="M25.2 61.5l.3 11.5L37 84.5C43.3 90.8 48.9 96 49.5 96c.5 0 3.4-2.5 6.5-5.5l5.6-5.5 5.4 5.5c3 3 5.8 5.5 6.2 5.5C74.6 96 96 74.3 96 73c0-1.5-21.3-23-22.8-23-.6 0-3.5 2.4-6.5 5.4l-5.4 5.5-5.4-5.5c-2.9-3-5.8-5.4-6.4-5.4-.6 0-3.5 2.5-6.5 5.5L37.6 61 32 55.5c-3.1-3-5.9-5.5-6.3-5.5-.4 0-.6 5.2-.5 11.5zM.9 78.2C.8 80 .8 83.7.8 86.5c.1 12.2-.6 10.8 10.5 21.9 5.6 5.6 11 10.8 12 11.5 1.5 1.2 2.9.2 13.2-10 6.3-6.2 11.5-11.6 11.5-12C48 96.6 26 75 24.7 75c-.7 0-3.5 2.2-6.2 5-2.7 2.7-5.2 5-5.5 5-.3 0-3-2.3-5.8-5-2.9-2.8-5.4-5-5.7-5-.3 0-.5 1.5-.6 3.2z"/></svg>